<?xml version="1.0" standalone="no"?>
<!DOCTYPE svg PUBLIC "-//W3C//DTD SVG 20010904//EN"
 "http://www.w3.org/TR/2001/REC-SVG-20010904/DTD/svg10.dtd">
<svg version="1.0" xmlns="http://www.w3.org/2000/svg"
 width="1000.000000pt" height="1000.000000pt" viewBox="0 0 1000.000000 1000.000000"
 preserveAspectRatio="xMidYMid meet">
<metadata>
Created by potrace 1.14, written by Peter Selinger 2001-2017
</metadata>
<g transform="translate(0.000000,1000.000000) scale(0.100000,-0.100000)"
fill="#000000" stroke="none">
<path d="M4367 9986 c-9 -10 -12 -215 -12 -969 0 -698 -3 -957 -11 -957 -6 0
-23 9 -38 21 -14 11 -26 17 -26 14 0 -4 -6 -3 -13 3 -18 16 -237 112 -237 105
0 -3 -7 0 -15 7 -8 6 -19 9 -25 5 -5 -3 -10 -2 -10 2 0 7 -133 52 -172 59 -5
1 -9 2 -10 4 -2 1 -10 3 -18 5 -8 1 -35 8 -60 15 -25 7 -56 14 -70 16 -86 14
-100 17 -100 23 0 3 -15 7 -33 8 -59 3 -112 10 -127 16 -28 11 -189 25 -365
32 -60 2 -123 7 -140 11 -50 11 -530 6 -530 -6 0 -1 -47 -3 -105 -5 -192 -8
-218 -10 -226 -18 -4 -4 -31 -7 -59 -7 -28 0 -55 -3 -59 -7 -3 -4 -19 -8 -34
-9 -86 -8 -114 -12 -119 -18 -4 -3 -18 -6 -33 -6 -15 0 -30 -3 -34 -7 -4 -4
-19 -8 -34 -8 -15 0 -31 -3 -37 -6 -5 -4 -28 -10 -50 -14 -22 -5 -42 -9 -45
-10 -3 -1 -25 -7 -50 -14 -25 -6 -52 -15 -60 -18 -18 -8 -17 -7 -60 -17 -19
-5 -40 -12 -46 -17 -6 -5 -19 -10 -30 -12 -18 -4 -26 -6 -69 -23 -11 -4 -22
-8 -25 -9 -86 -29 -352 -160 -435 -214 -38 -25 -77 -50 -86 -56 -63 -41 -85
-57 -136 -101 -111 -95 -212 -203 -273 -294 -8 -12 -19 -28 -25 -34 -5 -6 -19
-28 -29 -49 -11 -20 -24 -37 -29 -37 -6 0 -8 -3 -4 -6 3 -4 -5 -26 -18 -49
-13 -24 -21 -46 -18 -49 4 -3 0 -6 -7 -6 -7 0 -10 -3 -7 -7 4 -3 2 -12 -4 -20
-6 -7 -8 -13 -4 -13 4 0 3 -6 -2 -12 -5 -7 -16 -33 -23 -58 -7 -25 -18 -50
-23 -57 -5 -7 -6 -17 -2 -23 3 -6 0 -23 -7 -38 -8 -15 -14 -46 -13 -69 1 -24
-4 -43 -10 -43 -6 0 -10 -24 -10 -55 0 -30 3 -55 8 -55 4 0 6 -4 2 -9 -9 -15
-18 -102 -17 -161 4 -148 10 -227 17 -249 4 -14 8 -38 10 -55 1 -17 6 -40 12
-51 6 -11 9 -28 8 -37 -2 -9 3 -22 10 -28 7 -6 11 -20 8 -30 -3 -12 0 -20 7
-20 7 0 10 -8 7 -19 -3 -12 1 -22 10 -25 9 -4 13 -13 9 -21 -3 -9 1 -18 10
-22 8 -3 13 -12 10 -19 -3 -7 -1 -16 3 -19 5 -2 21 -28 36 -57 15 -29 34 -59
43 -66 10 -7 16 -16 14 -20 -2 -6 45 -73 93 -131 35 -42 149 -155 193 -191 24
-19 55 -45 70 -58 15 -13 39 -30 54 -40 16 -9 28 -20 28 -24 0 -4 5 -8 11 -8
6 0 28 -13 49 -30 21 -16 43 -30 49 -30 6 0 11 -4 11 -8 0 -4 24 -20 53 -35
28 -16 66 -37 82 -47 60 -38 303 -150 358 -165 4 -2 8 -3 10 -5 1 -1 10 -3 20
-5 10 -2 26 -7 35 -11 9 -4 19 -8 22 -9 29 -9 98 -29 110 -32 8 -2 20 -5 25
-7 6 -1 24 -6 40 -10 17 -4 37 -10 45 -13 8 -4 20 -7 25 -8 60 -8 105 -18 105
-24 0 -3 15 -7 33 -8 37 -2 80 -8 157 -23 30 -6 76 -12 103 -13 26 0 47 -4 47
-7 0 -4 30 -8 67 -9 37 -1 71 -5 75 -8 17 -10 198 -14 618 -14 472 0 526 3
715 34 11 2 43 7 70 12 28 4 54 10 60 13 5 3 21 7 35 8 34 3 82 14 94 21 5 4
19 8 30 9 31 3 58 10 98 27 20 9 39 13 42 10 3 -3 13 0 22 8 10 8 19 13 20 12
4 -3 21 2 52 14 9 3 19 7 22 8 3 1 19 8 35 15 17 7 32 14 35 15 3 1 22 9 43
18 20 9 38 16 40 15 1 -1 21 11 45 26 91 57 87 60 89 -78 2 -66 4 -138 7 -158
2 -21 1 -38 -3 -38 -3 0 -6 -1096 -6 -2435 0 -1339 2 -2435 5 -2435 3 0 7 -12
8 -27 1 -15 7 -30 14 -34 6 -4 287 -7 625 -7 472 0 616 3 626 12 9 10 12 226
12 969 0 526 1 957 3 957 11 0 92 -42 97 -50 3 -5 15 -10 26 -10 10 0 19 -5
19 -10 0 -6 3 -9 8 -8 14 4 52 -14 52 -24 0 -6 3 -9 6 -6 3 4 36 -6 72 -21 37
-15 70 -29 74 -30 19 -4 36 -10 80 -26 26 -9 52 -14 58 -10 5 3 10 2 10 -3 0
-5 15 -13 33 -17 17 -4 34 -9 37 -10 3 -1 23 -5 45 -10 22 -4 45 -10 50 -13 6
-4 19 -7 30 -7 11 -1 27 -4 35 -8 30 -11 182 -35 288 -44 34 -2 62 -8 62 -12
0 -3 24 -7 53 -7 28 -1 77 -4 107 -8 30 -4 64 -7 75 -6 52 3 113 1 140 -5 43
-11 431 -12 485 -2 25 4 95 10 155 12 122 5 204 11 250 19 17 2 53 8 80 12 28
4 59 9 70 10 11 2 37 5 58 8 21 2 41 6 44 10 3 3 21 6 40 6 18 0 33 4 33 9 0
5 14 7 30 6 17 -1 30 2 30 8 0 6 3 8 6 5 3 -3 21 -2 41 4 19 5 43 11 52 13 9
2 41 11 71 20 30 9 60 17 65 19 6 1 35 11 65 21 30 11 57 20 60 20 3 1 13 5
22 8 25 9 47 16 53 17 3 0 20 7 38 17 17 9 37 18 42 19 6 1 45 18 88 38 42 20
79 35 80 33 2 -1 10 3 18 10 8 6 41 26 74 43 33 18 68 40 79 49 10 9 20 14 22
11 2 -3 11 2 21 10 10 8 52 38 92 65 126 83 357 309 369 361 2 8 8 14 13 14 5
0 9 5 9 11 0 6 6 17 13 24 25 28 37 45 36 47 -3 8 25 58 33 58 4 0 7 3 6 8 -1
4 5 21 12 37 7 17 14 33 14 37 1 3 4 10 9 14 4 4 7 16 7 26 0 10 5 18 10 18 6
0 10 8 10 17 0 19 18 79 31 105 5 10 9 29 9 42 0 14 4 27 8 30 5 3 8 25 7 50
0 25 3 42 7 40 4 -3 8 -2 9 3 14 173 9 523 -9 546 -5 7 -8 29 -7 50 1 25 -3
37 -12 37 -8 0 -11 4 -8 10 7 11 -13 89 -27 105 -4 5 -8 14 -8 21 0 6 -8 29
-17 50 -9 22 -17 41 -18 44 0 3 -5 12 -10 20 -19 29 -34 55 -48 85 -40 84
-211 281 -325 375 -24 19 -53 43 -65 54 -12 10 -42 32 -67 49 -25 17 -47 33
-50 36 -11 13 -70 51 -78 51 -4 0 -17 8 -28 18 -11 9 -29 22 -40 28 -10 6 -41
23 -69 38 -27 16 -56 33 -62 38 -7 6 -13 7 -13 4 0 -4 -13 2 -29 13 -15 11
-30 18 -33 15 -3 -2 -11 2 -18 11 -7 8 -16 15 -20 15 -4 0 -25 8 -46 17 -22 9
-41 17 -44 18 -6 2 -57 22 -80 32 -8 3 -17 7 -20 8 -5 1 -63 19 -100 31 -8 3
-17 6 -20 6 -3 0 -29 9 -57 19 -29 10 -53 15 -53 12 0 -3 -7 0 -15 7 -9 7 -18
10 -21 7 -3 -3 -17 -2 -30 3 -28 11 -70 21 -100 24 -11 1 -24 5 -30 8 -5 3
-25 7 -44 9 -19 2 -40 7 -47 12 -7 5 -16 6 -21 3 -5 -3 -24 -1 -43 4 -41 12
-108 21 -249 35 -25 2 -65 7 -90 11 -25 4 -76 8 -115 11 -118 6 -935 9 -935 3
0 -3 -26 -7 -57 -7 -71 -2 -173 -13 -193 -20 -8 -4 -28 -7 -45 -8 -16 -1 -32
-3 -35 -4 -3 -2 -14 -4 -25 -6 -11 -2 -36 -7 -55 -11 -19 -4 -43 -7 -52 -7
-10 0 -18 -4 -18 -10 0 -6 -3 -8 -6 -5 -3 3 -21 2 -41 -4 -19 -5 -45 -12 -57
-14 -24 -6 -35 -9 -56 -16 -8 -3 -46 -15 -85 -28 -38 -12 -77 -24 -85 -28 -8
-3 -17 -6 -20 -7 -3 -1 -23 -9 -45 -19 -57 -25 -79 -34 -89 -34 -5 0 -12 -4
-15 -9 -5 -6 -98 -57 -130 -71 -4 -1 -6 53 -6 120 1 87 -3 129 -12 144 -12 19
-12 22 2 28 13 4 14 10 5 26 -6 11 -7 20 -3 20 5 0 8 1095 8 2433 -1 1942 -3
2431 -13 2429 -10 -2 -10 3 -2 17 7 15 7 22 -2 28 -7 4 -291 9 -630 10 -484 1
-621 -1 -631 -11z m-1307 -2260 c42 -4 121 -19 180 -32 14 -3 34 -7 45 -8 11
-2 27 -6 35 -9 21 -8 73 -21 85 -21 6 -1 12 -3 15 -6 6 -7 90 -34 105 -35 6 0
15 -6 20 -12 6 -7 22 -14 38 -15 15 -1 27 -5 27 -8 0 -3 24 -16 53 -30 28 -13
81 -41 116 -62 34 -21 65 -38 68 -38 3 0 27 -17 53 -37 26 -21 58 -45 70 -53
41 -27 176 -165 210 -216 19 -27 38 -52 44 -56 6 -4 7 -8 2 -8 -5 0 -2 -8 6
-17 18 -22 53 -95 50 -105 -1 -5 3 -8 10 -8 6 0 9 -3 5 -6 -3 -4 0 -22 8 -41
8 -19 12 -39 9 -44 -3 -5 -1 -9 4 -9 9 0 11 -7 15 -60 1 -19 6 -41 11 -48 11
-19 15 -134 4 -148 -4 -6 -9 -31 -11 -55 -2 -24 -9 -55 -14 -69 -6 -14 -9 -29
-6 -33 3 -4 -1 -14 -7 -22 -7 -8 -10 -21 -7 -29 3 -8 -1 -17 -9 -20 -8 -3 -13
-9 -12 -13 1 -4 -3 -18 -10 -30 -7 -13 -10 -23 -7 -23 4 0 -3 -13 -14 -29 -12
-16 -21 -34 -21 -40 0 -5 -7 -14 -16 -19 -9 -5 -14 -11 -12 -14 1 -3 -23 -38
-54 -78 -32 -40 -58 -70 -58 -67 0 3 -22 -17 -49 -44 -27 -27 -54 -49 -60 -49
-6 0 -11 -5 -11 -11 0 -5 -4 -7 -10 -4 -5 3 -10 1 -10 -5 0 -6 -8 -14 -17 -17
-10 -4 -27 -15 -38 -25 -11 -11 -31 -25 -45 -32 -14 -7 -60 -31 -103 -54 -42
-23 -80 -43 -85 -43 -13 -3 -56 -21 -84 -36 -16 -8 -28 -12 -28 -8 0 3 -16 -2
-36 -10 -20 -8 -45 -15 -56 -15 -12 0 -17 -4 -12 -12 4 -6 3 -8 -3 -5 -6 4
-46 -3 -89 -14 -78 -20 -99 -24 -182 -33 -24 -3 -53 -8 -65 -12 -73 -23 -579
-20 -597 4 -3 4 -21 8 -40 9 -48 3 -113 16 -150 30 -8 4 -22 5 -32 4 -9 -1
-19 3 -23 9 -3 5 -17 10 -31 10 -13 0 -24 5 -24 10 0 6 -3 9 -7 8 -13 -5 -95
25 -153 54 -30 15 -60 28 -67 28 -7 0 -13 4 -13 9 0 5 -8 12 -17 15 -27 9
-144 86 -198 131 -84 70 -167 159 -158 169 4 3 2 6 -4 6 -11 0 -49 55 -65 93
-4 9 -13 17 -19 17 -7 0 -10 3 -6 6 3 4 -1 21 -11 38 -9 17 -17 36 -18 41 -1
10 -19 55 -34 85 -4 9 -7 27 -6 40 1 14 -4 31 -11 38 -7 7 -10 26 -8 43 2 17
-1 43 -7 57 -14 34 -15 53 -6 74 5 9 4 19 -1 22 -10 6 -5 59 7 84 5 9 8 33 7
52 0 19 3 44 9 55 5 11 10 31 11 45 1 14 5 32 10 40 5 8 8 23 7 33 -2 9 2 17
7 17 6 0 11 9 11 19 0 11 5 23 11 26 5 4 8 12 6 18 -2 7 2 18 10 25 7 8 11 17
8 22 -3 4 2 11 11 14 8 3 13 10 10 15 -4 5 0 15 7 23 8 7 20 24 27 38 15 27
22 36 72 90 20 22 34 40 31 40 -2 0 10 12 29 27 18 16 39 33 46 40 24 23 131
95 138 93 4 -1 10 3 13 8 5 8 87 54 101 57 3 1 31 13 63 28 62 29 197 78 197
72 0 -2 15 2 34 10 18 8 46 17 62 20 16 3 38 8 49 10 11 2 43 9 70 15 28 6 69
12 92 14 24 1 46 5 49 9 7 7 384 2 454 -7z m4340 -3340 c30 -3 80 -10 110 -16
30 -6 64 -12 75 -14 24 -3 74 -16 95 -23 8 -4 22 -5 32 -4 9 1 19 -3 23 -9 3
-5 17 -10 31 -10 13 0 24 -4 24 -10 0 -5 7 -7 15 -4 8 4 15 1 15 -5 0 -6 3
-10 8 -9 23 5 67 -15 283 -129 15 -7 32 -20 39 -28 7 -8 16 -15 21 -15 21 0
162 -129 214 -195 17 -21 38 -46 48 -56 9 -11 14 -19 10 -19 -3 0 0 -8 8 -17
8 -10 24 -35 34 -55 11 -21 23 -38 26 -38 4 0 6 -8 5 -17 -2 -10 1 -21 6 -24
5 -3 11 -12 12 -20 2 -8 6 -23 10 -34 5 -11 12 -32 18 -47 6 -15 8 -34 5 -42
-3 -8 -1 -16 5 -18 6 -2 12 -28 14 -56 1 -29 6 -58 11 -65 5 -6 8 -23 6 -37
-5 -38 -5 -43 1 -67 2 -12 -1 -35 -8 -50 -7 -15 -13 -48 -12 -73 1 -25 -3 -48
-7 -51 -4 -3 -9 -17 -9 -30 -1 -13 -7 -32 -14 -42 -6 -10 -10 -27 -7 -38 3
-10 0 -19 -6 -19 -6 0 -11 -9 -11 -19 0 -11 -5 -23 -11 -26 -5 -4 -8 -12 -6
-18 2 -7 -2 -18 -10 -25 -7 -8 -11 -18 -8 -23 4 -5 1 -9 -4 -9 -6 0 -11 -7
-11 -15 0 -8 -5 -15 -11 -15 -5 0 -8 -4 -4 -9 3 -6 -2 -14 -11 -19 -9 -5 -15
-12 -14 -16 6 -26 -182 -220 -251 -258 -17 -9 -38 -23 -47 -31 -14 -12 -115
-68 -132 -72 -3 -1 -23 -10 -45 -20 -22 -10 -42 -19 -45 -20 -3 -1 -18 -8 -35
-15 -16 -7 -34 -14 -40 -16 -5 -1 -38 -12 -73 -23 -69 -22 -135 -41 -167 -47
-11 -2 -42 -8 -70 -14 -27 -6 -68 -12 -90 -13 -22 -2 -45 -6 -51 -9 -13 -9
-405 -7 -419 1 -5 3 -26 7 -45 8 -37 2 -69 7 -117 17 -15 4 -39 9 -53 11 -47
9 -65 14 -97 24 -18 5 -33 7 -33 4 0 -3 -7 0 -15 7 -8 6 -19 9 -25 5 -5 -3
-10 -2 -10 3 0 5 -12 12 -27 15 -16 3 -46 14 -68 24 -22 9 -44 18 -50 18 -26
3 -278 135 -295 155 -3 3 -30 22 -61 43 -31 21 -87 67 -124 103 -38 35 -73 64
-77 64 -5 0 -7 4 -4 8 3 4 -11 25 -30 46 -19 20 -34 42 -34 48 0 6 -8 18 -18
27 -20 18 -82 137 -82 157 0 8 -4 14 -9 14 -5 0 -7 9 -4 20 3 11 1 20 -4 20
-6 0 -10 10 -9 23 1 12 -4 28 -11 35 -8 8 -11 31 -9 57 2 25 -1 42 -5 39 -5
-3 -10 3 -10 13 -5 83 -3 130 6 139 6 6 10 31 10 55 -1 24 3 47 7 50 5 3 10
17 10 30 1 13 6 30 11 37 5 6 6 12 2 12 -4 0 0 11 9 25 9 14 14 25 10 25 -4 0
0 7 7 16 7 9 14 23 15 31 1 8 11 26 20 41 10 15 19 30 19 33 0 3 23 37 52 76
51 69 181 194 231 223 14 8 35 23 47 33 21 17 36 26 145 84 54 28 164 76 185
79 6 1 24 8 40 15 17 7 37 13 45 13 8 0 17 4 20 8 3 3 17 8 30 10 14 2 30 6
35 9 6 4 18 5 28 4 9 -2 17 0 17 5 0 4 19 10 43 14 23 4 53 9 67 11 14 2 34 6
45 8 28 6 111 17 168 22 27 2 51 5 53 7 5 6 309 1 374 -6z"/>
</g>
</svg>
